<?xml version="1.0" encoding="utf-8"?>
<!-- Generator: Adobe Illustrator 27.9.1, SVG Export Plug-In . SVG Version: 6.00 Build 0)  -->
<svg version="1.1" id="Layer_1" xmlns="http://www.w3.org/2000/svg" xmlns:xlink="http://www.w3.org/1999/xlink" x="0px" y="0px"
	 viewBox="0 0 1080 240" style="enable-background:new 0 0 1080 240;" xml:space="preserve">
<style type="text/css">
	.st0{fill:#19223F;}
	.st1{fill:#C99E50;}
	.st2{fill:none;}
	.st3{fill:#FFFFFF;}
	.st4{fill:#EBCA9C;}
</style>
<g>
	<g>
		<g>
			<path class="st3" d="M463.5,164.7h-25.6l-15-67.9l-15.2,67.9H382l-22-89.4h19.9l15.2,63.9l15.6-63.9h24.6l15.3,63.9l15-63.9h19.9
				L463.5,164.7z"/>
			<path class="st3" d="M508.2,164.7V75.3h56.2v17.9h-36.1v16.4h33.3v17.9h-33.3v19.5h36.1v17.8H508.2z"/>
			<path class="st3" d="M633.1,138.9v25.8H613v-25.8l-27.8-63.6h21.1l16.8,41.5l16.8-41.5h21.1L633.1,138.9z"/>
			<path class="st3" d="M711.7,166c-21.7,0-32.7-11.1-32.7-27.4v-37.3c0-16.5,11-27.4,32.7-27.4c10.3,0,20.9,1.3,28.6,2.8l-2.4,17.6
				c-7.8-1.2-19.7-2.1-26.2-2.1c-10.1,0-12.6,5.2-12.6,12.2v30.7c0,7,2.6,12.8,12.6,12.8c4,0,6.7-0.1,11.9-0.8v-27.4h18.9v42
				C732.8,164.6,722.1,166,711.7,166z"/>
			<path class="st3" d="M847.6,164.7h-20.9l-4.8-17.4h-29.9l-4.8,17.4h-20.9l27.2-89.4h26.8L847.6,164.7z M796.4,130.5H817L806.8,93
				L796.4,130.5z"/>
			<path class="st3" d="M890.2,105.9v58.8H871V75.3h24.7l29.4,61.6V75.3h19.2v89.4h-24.8L890.2,105.9z"/>
			<path class="st3" d="M1009.8,164.7h-34.6V75.3h34.6c22,0,30.2,11.1,30.2,23.2v42.9C1040,153.4,1031.8,164.7,1009.8,164.7z
				 M1019.9,104c0-7-2.4-10.9-12.5-10.9h-12.1v53.7h12.1c10.1,0,12.5-3.9,12.5-10.9V104z"/>
		</g>
		<g>
			<path class="st1" d="M84.6,42.9c-3.1-3.8-7.9-3.8-10.9,0.1L42.2,83.4c-3,3.9-3,10.3,0.1,14.1l13,17.1l42.2-54.6L84.6,42.9z"/>
			<polygon class="st1" points="102.1,66 59.9,120.6 78.3,145 120.5,90.4 			"/>
			<polygon class="st1" points="106.2,120.7 146.5,174.1 165.4,149.8 125,96.4 			"/>
			<path class="st1" d="M82.8,151l34.9,46.1c3.1,3.9,8,3.9,11,0L142,180l-40.3-53.3L82.8,151z"/>
			<path class="st1" d="M238.3,114.8l27.5-36.4l0,0l13.8-18.2L266.3,43c-3-3.9-7.8-3.9-10.9-0.1l-13,17.2l0,0l-23,30.4L238.3,114.8z
				"/>
			<path class="st1" d="M297.8,83.4L284.2,66L270,84.9l0,0l-27.1,35.8l18.8,24.3l23-30.4l0,0l13-17.1
				C300.8,93.7,300.8,87.3,297.8,83.4z"/>
			<path class="st1" d="M220.1,162.6l-27.9-36.1l-17.6,23.3L198,180l0,0l13.3,17.1c3,3.9,7.9,3.9,11,0l12.1-16L220.1,162.6
				L220.1,162.6z"/>
			<polygon class="st1" points="244.3,134.3 215,96.4 196.7,120.6 220.1,150.8 220.1,150.8 226.9,159.7 228.2,161.3 228.2,161.3 
				238.9,175.2 257.2,151 244.3,134.3 			"/>
			<polygon class="st1" points="193.1,67.9 152.4,120.6 170.3,143.5 211,91.2 			"/>
			<path class="st1" d="M188.6,62L188.6,62l-38.2,49.4l-2.5,3.2l-2.4-3.2L131,92.3l-1.4-1.9l1.5-1.9l36.6-47.4
				c1.2-1.6,3.7-1.6,4.9,0L188.6,62z"/>
		</g>
	</g>
	<rect y="0" class="st2" width="1080" height="240"/>
</g>
</svg>
